HIERARCHY
ROOT pelvis
{
  OFFSET 0 100 0
  CHANNELS 6 Xposition Yposition Zposition Zrotation Xrotation Yrotation
  JOINT pelvis_right_femur
  {
    OFFSET -10.78128 -3.44521 -0.5502486
    CHANNELS 3 Zrotation Xrotation Yrotation
    JOINT right_femur_tibia
    {
      OFFSET -0.8047443 -44.0398 -0.1307829
      CHANNELS 3 Zrotation Xrotation Yrotation
      JOINT right_tibia_foot
      {
        OFFSET 3.006224 -47.83518 -5
        CHANNELS 3 Zrotation Xrotation Yrotation
        End Site
        {
          OFFSET 0 -5 15
        }
      }
    }
  }
  JOINT pelvis_left_femur
  {
    OFFSET 10.78128 -3.44521 -0.5502486
    CHANNELS 3 Zrotation Xrotation Yrotation
    JOINT left_femur_tibia
    {
      OFFSET 0.8047443 -44.0398 -0.1307829
      CHANNELS 3 Zrotation Xrotation Yrotation
      JOINT left_tibia_foot
      {
        OFFSET -4.370144 -48.10324 -4.275266
        CHANNELS 3 Zrotation Xrotation Yrotation
        End Site
        {
          OFFSET 0 -5 15
        }
      }
    }
  }
  JOINT pelvis_spine1
  {
    OFFSET 0 6.468898 -3.129235
    CHANNELS 3 Zrotation Xrotation Yrotation
    JOINT spine1
    {
      OFFSET 0 23.15396 4.99043
      CHANNELS 3 Zrotation Xrotation Yrotation
      JOINT spine2
      {
        OFFSET 0 20.79997 -5.064912
        CHANNELS 3 Zrotation Xrotation Yrotation
        JOINT neck
        {
          OFFSET 0 14.38658 9.616178
          CHANNELS 3 Zrotation Xrotation Yrotation
          End Site
          {
            OFFSET 0 20 0
          }
        }
      }
      JOINT right_manubrium
      {
        OFFSET -5.722621 16.35077 3.967754
        CHANNELS 3 Zrotation Xrotation Yrotation
        JOINT right_clavicle
        {
          OFFSET -13.16364 1.694482 -4.693211
          CHANNELS 3 Zrotation Xrotation Yrotation
          JOINT right_humerus
          {
            OFFSET -28.5034 -0.3100689 -2.792744
            CHANNELS 3 Zrotation Xrotation Yrotation
            JOINT right_radius
            {
              OFFSET -25.15693 0.02248979 -1.271978
              CHANNELS 3 Zrotation Xrotation Yrotation
              End Site
              {
                OFFSET -15 0 0
              }
            }
          }
        }
      }
      JOINT left_manubrium
      {
        OFFSET 5.722621 16.35077 3.967754
        CHANNELS 3 Zrotation Xrotation Yrotation
        JOINT left_clavicle
        {
          OFFSET 13.16364 1.694482 -4.693211
          CHANNELS 3 Zrotation Xrotation Yrotation
          JOINT left_humerus
          {
            OFFSET 29.39168 -1.063119 -2.237045
            CHANNELS 3 Zrotation Xrotation Yrotation
            JOINT left_radius
            {
              OFFSET 24.59957 -0.9528479 0.9047498
              CHANNELS 3 Zrotation Xrotation Yrotation
              End Site
              {
                OFFSET 15 -0 -0
              }
            }
          }
        }
      }
    }
  }
}
MOTION
Frames: 13
Frame Time: 0.0416666666667
1591.092 106.3661 2406.838 7.309647 -1.994858 67.26713 0.06861423 -21.82319 0.9930154 -0 28.23844 -0 -1.821639 -3.846238 -9.166038 -5.289835 13.19881 -7.59417 -0 13.22444 -0 -4.457216 -20.06087 13.03611 -2.747087 1.257866 2.278435 1.132755 9.251753 -7.737098 2.237556 23.29617 5.219148 0.9382047 -16.56567 8.1073 0.08020627 -15.34588 9.703435 91.4816 22.49591 -19.75358 -0 0 10.05031 -20.01702 10.41267 10.18772 5.15552 -21.34362 -5.248223 -81.7107 25.15829 5.622749 0 0 -24.56972 0.7449227 7.84213 13.2827
1596.422 105.1673 2409.196 6.938113 -1.439123 67.8394 -0.3751312 -24.04688 0.3113948 -0 18.96783 -0 -2.61313 -4.970157 -9.535221 -5.310038 16.06915 -7.268362 -0 13.35452 -0 -4.667531 -21.03721 12.43642 -3.081304 0.9968 1.99697 1.519505 8.745444 -8.052311 2.494263 23.46544 4.91439 0.8134445 -16.4962 8.161791 -0.4340243 -14.38342 9.538092 92.3456 22.07719 -21.35614 -0 0 7.871678 -19.43693 10.34758 9.427406 5.597282 -22.29968 -5.212449 -80.32306 24.61964 2.476152 0 0 -26.89136 1.819756 8.464673 11.51483
1602.07 103.8604 2411.83 6.83867 -1.108123 68.39753 -0.2808563 -24.66383 0.3466628 -0 14.33413 -0 -3.021485 -5.757279 -10.14515 -5.231839 18.46886 -7.092788 -0 14.96145 -0 -5.021746 -21.03063 12.26362 -3.271507 0.6831203 1.659501 1.699652 8.237682 -8.095662 2.759611 23.61497 4.536703 0.6795917 -16.1831 8.143691 -0.6248005 -13.32669 9.392624 92.79272 21.79804 -22.20671 -0 0 6.04095 -18.50503 10.19597 8.469981 5.858251 -22.60365 -5.013829 -79.3778 24.04001 0.09127881 0 0 -27.96253 2.866033 8.811096 9.78133
1608.031 102.7905 2414.739 6.700505 -1.131063 68.91918 0.5999426 -24.80187 1.013321 -0 13.5349 -0 -3.386515 -6.082602 -10.80504 -4.902633 20.54415 -7.289465 -0 18.14725 -0 -5.687886 -20.2519 12.3311 -3.125316 0.4315073 1.213934 1.766569 7.762393 -8.019666 2.983649 23.67715 4.182473 0.675 -15.90072 8.00582 -0.3633596 -12.28479 9.293161 92.78824 22.01694 -22.52484 -0 0 4.680143 -17.17926 10.04101 7.392066 5.9771 -22.39563 -4.704586 -78.98904 23.90499 -1.274208 0 0 -27.96739 3.537403 9.24117 8.623507
1614.205 102.2299 2417.869 6.452399 -1.551329 69.30842 2.173373 -24.55845 2.087329 -0 15.38183 -0 -3.865377 -6.08994 -11.27607 -4.283015 21.85635 -7.876858 -0 23.32978 -0 -6.714695 -18.68151 12.4529 -2.571477 0.3159947 0.7656436 1.780426 7.404434 -7.884052 3.152725 23.68222 3.904065 0.8091932 -15.81379 7.787795 0.2896282 -11.42677 9.270743 92.37729 22.77823 -22.40487 -0 0 3.917783 -15.75963 10.04531 6.420681 5.881035 -21.77748 -4.369044 -79.24757 24.39712 -1.380601 0 0 -26.94385 3.638886 9.980154 8.378014
1620.426 102.3413 2421.113 6.272986 -2.264613 69.43001 3.991303 -23.31108 3.245787 -0 18.37619 -0 -4.46155 -6.186021 -11.36419 -3.529568 21.66552 -8.642073 -0 30.85207 -0 -7.912011 -16.27919 12.60251 -1.739171 0.3654058 0.5385225 1.765941 7.271149 -7.673043 3.282401 23.74674 3.695518 1.005944 -15.88854 7.558343 1.132522 -10.91065 9.35025 91.6711 23.87445 -21.87946 -0 0 3.801338 -14.6745 10.31148 5.789136 5.486663 -20.88439 -4.097399 -80.17482 25.36121 -0.21518 0 0 -24.99289 3.176951 10.98746 9.044963
1626.51 103.1321 2424.333 6.342799 -2.985101 69.17944 5.441091 -20.41595 4.158736 -0 20.82202 -0 -5.11507 -6.667935 -10.97471 -2.937369 19.27786 -9.177401 -0 40.18632 -0 -8.902212 -13.32928 12.90925 -0.9476512 0.5652134 0.7887838 1.73711 7.428001 -7.349878 3.367162 23.94342 3.53375 1.216856 -16.03186 7.314898 1.930521 -10.87122 9.558355 90.76789 24.98766 -20.9965 -0 0 4.276161 -14.18186 10.66694 5.62189 4.837494 -19.95597 -3.928704 -81.70742 26.41263 2.012509 0 0 -22.47867 2.341441 11.89032 10.31113
1632.317 104.4127 2427.414 6.720273 -3.408542 68.56921 6.102723 -15.87402 4.659324 -0 21.67314 -0 -5.71118 -7.641779 -10.18415 -2.688128 14.56062 -9.203469 -0 49.3948 -0 -9.370716 -10.56341 13.54658 -0.5367495 0.91645 1.59753 1.660457 7.770479 -6.852554 3.396679 24.26373 3.41246 1.455693 -16.09581 7.022025 2.517341 -11.29759 9.861449 89.64242 25.87571 -19.69147 -0 0 5.263519 -14.20223 10.74749 5.837099 4.171577 -19.17212 -3.815117 -83.63104 27.15927 4.80994 0 0 -19.84445 1.490295 12.26813 11.57206
1637.797 105.8583 2430.312 7.297251 -3.450992 67.73493 6.017173 -10.53653 4.768869 -0 21.02003 -0 -6.158903 -9.067871 -9.22054 -2.664257 8.363776 -8.85331 -0 55.88277 -0 -9.292448 -8.756127 14.55697 -0.607583 1.408069 2.708099 1.473454 8.040261 -6.152757 3.38842 24.65268 3.340444 1.725156 -15.97067 6.71659 2.818439 -11.98246 10.14631 88.26269 26.48418 -17.85165 -0 0 6.621034 -14.44344 10.37333 6.217924 3.781194 -18.51247 -3.659056 -85.58646 27.44821 7.509388 0 0 -17.35578 0.9903535 12.1291 12.2031
1642.984 107.1709 2433.036 7.878208 -3.264149 66.82734 5.540593 -5.158509 4.578454 -0 19.419 -0 -6.392521 -10.71082 -8.224784 -2.618606 1.698661 -8.370836 -0 58.53001 -0 -8.84022 -7.975342 15.84688 -0.9584353 1.931072 3.814927 1.167847 8.15368 -5.326905 3.34483 25.01053 3.339414 1.971611 -15.76282 6.479485 2.82949 -12.82455 10.36276 86.76621 26.85625 -15.56855 -0 0 8.221997 -14.86097 9.790811 6.734608 3.744664 -17.90037 -3.420397 -87.36758 27.31364 9.907011 0 0 -15.08691 0.9035531 11.79043 12.11012
1647.973 108.1322 2435.598 8.29208 -2.99813 65.93988 4.983667 0.2443093 4.205087 -0 17.0871 -0 -6.297975 -12.25342 -7.152792 -2.334115 -5.235321 -7.709453 -0 57.44202 -0 -8.133604 -7.775498 17.32435 -1.335544 2.333996 4.865581 0.7897771 8.281939 -4.494197 3.216304 25.17849 3.433846 2.143128 -15.69849 6.312898 2.585014 -14.02553 10.58233 85.27731 26.96672 -13.01332 -0 0 10.19834 -15.73618 9.346358 7.62041 3.951291 -17.35757 -3.137122 -89.02758 26.7384 12.4041 0 0 -13.10566 0.9829482 11.32699 11.73326
1652.896 108.5826 2438.012 8.377904 -2.772551 65.11575 4.543312 5.529702 3.735415 -0 14.41071 -0 -5.883486 -13.61849 -6.01137 -1.639489 -12.07066 -6.805931 -0 52.39995 -0 -7.284685 -7.843775 18.84802 -1.547157 2.515239 5.778026 0.3988893 8.483156 -3.762239 2.989545 25.06936 3.603498 2.18449 -15.88679 6.211775 2.113996 -15.68786 10.8103 83.85534 26.75525 -10.30323 -0 0 12.66591 -17.16326 9.150113 8.995254 4.267966 -16.87485 -2.836768 -90.564 25.79747 15.19779 0 0 -11.43311 1.001043 10.78236 11.48013
1657.89 108.4616 2440.304 8.006798 -2.676356 64.35609 4.311492 10.18574 3.205066 -0 12.13534 -0 -5.320649 -14.91071 -4.872423 -0.5661539 -17.93578 -5.803574 -0 43.81427 -0 -6.473151 -7.962683 20.1815 -1.489858 2.443053 6.392839 0.06506686 8.645802 -3.219883 2.702182 24.73063 3.822875 2.086752 -16.30286 6.204686 1.496012 -17.59018 10.95576 82.56994 26.31763 -7.641016 -0 0 15.42846 -18.88752 9.098243 10.69001 4.569859 -16.39534 -2.523715 -91.88304 24.74664 18.06918 0 0 -9.99464 0.903122 10.29589 11.49814
